Coordinates
version=1
nRows=15
nColumns=38
inDegrees=yes

Units are S.I. units (second, meters, Newtons, ...)
Angles are in degrees.

endheader
time	pelvis_tilt	pelvis_list	pelvis_rotation	pelvis_tx	pelvis_ty	pelvis_tz	hip_flexion_r	hip_adduction_r	hip_rotation_r	knee_angle_r	ankle_angle_r	subtalar_angle_r	mtp_angle_r	hip_flexion_l	hip_adduction_l	hip_rotation_l	knee_angle_l	ankle_angle_l	subtalar_angle_l	mtp_angle_l	lumbar_extension	lumbar_bending	lumbar_rotation	arm_flex_r	arm_add_r	arm_rot_r	elbow_flex_r	pro_sup_r	wrist_flex_r	wrist_dev_r	arm_flex_l	arm_add_l	arm_rot_l	elbow_flex_l	pro_sup_l	wrist_flex_l	wrist_dev_l
      2.38000000	      1.99324733	      1.88755224	     -3.82956398	     -0.00915153	      0.88137791	      2.57247579	     24.36732878	     -4.68407780	     -5.82803031	    -58.67968758	      5.32227480	      0.00000000	      0.00000000	     -1.06206565	      4.81816513	     -4.23129892	     -8.65766646	      4.85248327	      0.00000000	      0.00000000	     -7.59892445	     -1.81888923	      0.48052976	      9.74257462	     -9.41529293	      8.75812481	     16.41402572	     93.98385108	      0.00000000	      0.00000000	      3.44301752	    -13.09044993	      6.68432203	     17.97918025	     96.17881158	      0.00000000	      0.00000000
      2.39000000	      1.98489860	      1.78226261	     -3.47815036	     -0.01006308	      0.88088572	      2.57202872	     25.07586566	     -4.61505875	     -6.52046157	    -56.34323862	      5.57376641	      0.00000000	      0.00000000	     -1.97516590	      4.76437217	     -4.10568877	     -8.26541182	      5.20257200	      0.00000000	      0.00000000	     -7.73672141	     -1.56387496	      0.08413557	      9.19836061	     -9.55831359	      8.06973443	     15.75553487	     94.21465371	      0.00000000	      0.00000000	      4.74869167	    -13.48367499	      7.40286461	     18.42168719	     96.09158531	      0.00000000	      0.00000000
      2.40000000	      1.96021318	      1.72132787	     -3.18205799	     -0.01095026	      0.88023585	      2.57171394	     25.69828606	     -4.55325175	     -7.13161164	    -53.76397691	      5.58926116	      0.00000000	      0.00000000	     -2.86189112	      4.75041298	     -4.01421065	     -7.88861790	      5.55505117	      0.00000000	      0.00000000	     -7.84755071	     -1.37388713	     -0.21972798	      8.64445890	     -9.69298931	      7.36254090	     15.07304123	     94.42627941	      0.00000000	      0.00000000	      6.07229184	    -13.86562162	      8.06660852	     18.85130977	     96.01744024	      0.00000000	      0.00000000
      2.41000000	      1.92493201	      1.68940654	     -2.94551011	     -0.01176616	      0.87944640	      2.57156187	     26.22647420	     -4.47738053	     -7.66694385	    -50.94656838	      5.37067912	      0.00000000	      0.00000000	     -3.73715495	      4.75520688	     -3.95068329	     -7.53264687	      5.90785468	      0.00000000	      0.00000000	     -7.93167710	     -1.23074657	     -0.43589894	      8.08416247	     -9.82006861	      6.63351621	     14.36189872	     94.64011941	      0.00000000	      0.00000000	      7.38833558	    -14.22646760	      8.65606555	     19.27432188	     95.94280601	      0.00000000	      0.00000000
      2.42000000	      1.88758737	      1.67006286	     -2.75845565	     -0.01243882	      0.87857050	      2.57156050	     26.64865156	     -4.37125696	     -8.13515877	    -47.89970170	      4.93363362	      0.00000000	      0.00000000	     -4.61248242	      4.75985697	     -3.91044130	     -7.19868213	      6.25464780	      0.00000000	      0.00000000	     -7.99117496	     -1.11085629	     -0.58411085	      7.51717548	     -9.93876265	      5.87481894	     13.62159096	     94.87707105	      0.00000000	      0.00000000	      8.67897877	    -14.55725571	      9.15733881	     19.70813912	     95.85548336	      0.00000000	      0.00000000
      2.43000000	      1.85052741	      1.65097435	     -2.60043041	     -0.01298984	      0.87761764	      2.57164850	     26.94833394	     -4.22795217	     -8.54227737	    -44.63757164	      4.31125430	      0.00000000	      0.00000000	     -5.48934027	      4.75556209	     -3.89120626	     -6.88361600	      6.58640615	      0.00000000	      0.00000000	     -8.02935547	     -0.99684293	     -0.68982541	      6.94556426	    -10.04883679	      5.07738439	     12.85586914	     95.15714622	      0.00000000	      0.00000000	      9.93236872	    -14.85511142	      9.56112562	     20.17305140	     95.74601042	      0.00000000	      0.00000000
      2.44000000	      1.81139762	      1.63127767	     -2.45170778	     -0.01347739	      0.87658328	      2.57178222	     27.11247091	     -4.05112680	     -8.89356992	    -41.17447192	      3.55555597	      0.00000000	      0.00000000	     -6.36238019	      4.74312838	     -3.89340670	     -6.58299357	      6.89282644	      0.00000000	      0.00000000	     -8.04794666	     -0.88697730	     -0.77421840	      6.37769683	    -10.15424741	      4.23491602	     12.07240381	     95.49993694	      0.00000000	      0.00000000	     11.13633055	    -15.12334738	      9.86180666	     20.68445300	     95.60818921	      0.00000000	      0.00000000
      2.45000000	      1.76795810	      1.61980703	     -2.30277290	     -0.01387492	      0.87548648	      2.57197513	     27.13846148	     -3.85407081	     -9.19837436	    -37.52524635	      2.73146842	      0.00000000	      0.00000000	     -7.22783764	      4.73131601	     -3.91967910	     -6.29535254	      7.16397886	      0.00000000	      0.00000000	     -8.04584020	     -0.79188964	     -0.85028778	      5.82108428	    -10.25897407	      3.34840118	     11.27909440	     95.92522757	      0.00000000	      0.00000000	     12.27681632	    -15.36596506	     10.05843895	     21.25134381	     95.44008715	      0.00000000	      0.00000000
      2.46000000	      1.72104264	      1.62802562	     -2.15259954	     -0.01410413	      0.87431380	      2.57223995	     27.03487640	     -3.65450953	     -9.47252339	    -33.71489337	      1.90187796	      0.00000000	      0.00000000	     -8.08863304	      4.73315977	     -3.97182782	     -6.02549414	      7.39212346	      0.00000000	      0.00000000	     -8.02135830	     -0.72114397	     -0.92466584	      5.27121633	    -10.35893481	      2.42846950	     10.47959406	     96.45162617	      0.00000000	      0.00000000	     13.34253337	    -15.58398597	     10.15646585	     21.87908530	     95.24516807	      0.00000000	      0.00000000
      2.47000000	      1.67382677	      1.66350878	     -1.99794134	     -0.01416830	      0.87304652	      2.57255593	     26.81538216	     -3.46901714	     -9.73743910	    -29.78962455	      1.10955384	      0.00000000	      0.00000000	     -8.95022021	      4.75574779	     -4.04539119	     -5.78400837	      7.57338869	      0.00000000	      0.00000000	     -7.97438139	     -0.67740898	     -1.00035250	      4.71464089	    -10.44531790	      1.49171772	      9.67417318	     97.09129939	      0.00000000	      0.00000000	     14.32848472	    -15.77670954	     10.16816342	     22.57011442	     95.03227318	      0.00000000	      0.00000000
      2.48000000	      1.63127270	      1.72720071	     -1.82891922	     -0.01406238	      0.87169270	      2.57290029	     26.49345414	     -3.31038100	    -10.01940552	    -25.81807070	      0.36598164	      0.00000000	      0.00000000	     -9.81082166	      4.79351809	     -4.12568984	     -5.58464417	      7.70881893	      0.00000000	      0.00000000	     -7.90790369	     -0.66010078	     -1.07973922	      4.14220124	    -10.51450665	      0.55334033	      8.86447310	     97.84326894	      0.00000000	      0.00000000	     15.23522288	    -15.94427975	     10.11121021	     23.32150533	     94.81378741	      0.00000000	      0.00000000
      2.49000000	      1.59792703	      1.81360569	     -1.63426605	     -0.01374280	      0.87030045	      2.57328286	     26.08377811	     -3.18603604	    -10.35020598	    -21.88252070	     -0.34586510	      0.00000000	      0.00000000	    -10.66001814	      4.83401213	     -4.18863210	     -5.44499792	      7.80408117	      0.00000000	      0.00000000	     -7.82775966	     -0.66874182	     -1.16791467	      3.55797951	    -10.57113933	     -0.37753627	      8.05737275	     98.69042697	      0.00000000	      0.00000000	     16.06728116	    -16.08736307	     10.00578893	     24.12441397	     94.60215301	      0.00000000	      0.00000000
      2.50000000	      1.57540028	      1.91367577	     -1.40748833	     -0.01325496	      0.86890447	      2.57372647	     25.60672126	     -3.09677137	    -10.76466990	    -18.07170590	     -1.05500346	      0.00000000	      0.00000000	    -11.48316176	      4.86639871	     -4.20496279	     -5.38751446	      7.86786700	      0.00000000	      0.00000000	     -7.74092428	     -0.70297784	     -1.27169654	      2.97755026	    -10.62291339	     -1.29621773	      7.26528282	     99.60320168	      0.00000000	      0.00000000	     16.83045516	    -16.20722548	      9.87021213	     24.96622807	     94.40529507	      0.00000000	      0.00000000
      2.51000000	      1.56385886	      2.02078432	     -1.14862501	     -0.01264783	      0.86748893	      2.57424181	     25.09190319	     -3.03658004	    -11.28986883	    -14.48061495	     -1.77939306	      0.00000000	      0.00000000	    -12.26253903	      4.88309674	     -4.14515018	     -5.43660375	      7.90978063	      0.00000000	      0.00000000	     -7.65515107	     -0.75942141	     -1.39632701	      2.41592697	    -10.67196118	     -2.19618459	      6.50233876	    100.54802214	      0.00000000	      0.00000000	     17.52933206	    -16.30786774	      9.71622086	     25.83419606	     94.22254682	      0.00000000	      0.00000000
      2.52000000	      1.56148328	      2.13427072	     -0.85846932	     -0.01196981	      0.86605657	      2.57483514	     24.57570146	     -2.99298816	    -11.92640468	    -11.21390458	     -2.50659594	      0.00000000	      0.00000000	    -12.98070225	      4.87712837	     -3.98390883	     -5.61478680	      7.93827752	      0.00000000	      0.00000000	     -7.57813840	     -0.82954496	     -1.54494808	      1.87691611	    -10.71148739	     -3.06381667	      5.78076398	    101.49503943	      0.00000000	      0.00000000	     18.16742930	    -16.39434417	      9.54677550	     26.72033176	     94.04343595	      0.00000000	      0.00000000
